<svg width="43" height="28" viewBox="0 0 43 28" fill="none" xmlns="http://www.w3.org/2000/svg">
<path d="M4.01822 0.0709273C5.85404 -0.0501956 8.42152 0.026301 10.3141 0.0261715L21.8255 0.0264957L32.7581 0.0272073C34.345 0.027272 36.9383 -0.0504537 38.4764 0.056549C38.4663 0.50017 38.449 0.877529 38.5018 1.31966C38.8995 1.32549 39.3872 1.31979 39.7767 1.34401C39.7146 3.05016 39.7638 4.95736 39.7644 6.6821L39.7654 16.6156C39.7653 18.0322 39.808 19.7064 39.7528 21.1074L42.4825 21.1391C42.4928 22.4768 42.4927 23.8147 42.4822 25.1525C42.2013 25.1585 41.4874 25.1575 41.2403 25.1932L41.1755 25.1542C41.2461 24.7102 41.2097 23.1568 41.2161 22.5958C39.8117 22.5059 37.9175 22.6 36.4698 22.5759C32.7615 22.5142 28.9539 22.6429 25.2516 22.5755L25.2591 23.8627L23.8752 23.8552C23.8166 24.3041 23.8282 24.7006 23.8309 25.1519C22.1608 25.2073 20.3177 25.1622 18.6394 25.1515C18.6615 24.7238 18.6561 24.2974 18.6554 23.8692C20.3456 23.8086 22.1246 23.9212 23.8417 23.8438L23.8616 22.6047C22.2253 22.4946 20.3432 22.6327 18.662 22.562C18.6589 23.0485 18.6645 23.4564 18.5976 23.9389C18.2 23.8836 17.626 23.8667 17.2117 23.8435L17.2294 22.6101C15.8293 22.5383 14.1903 22.5747 12.7751 22.5746L5.12562 22.5818C3.91413 22.5835 2.49842 22.6194 1.29988 22.5581C1.28045 23.3808 1.33285 24.2953 1.26154 25.1055L1.16567 25.2304C0.797837 25.2006 0.371835 25.1539 0.00768885 25.1664C0.0278976 23.82 -0.0246969 22.4291 0.0157853 21.0967C0.927834 21.1772 1.83399 21.0973 2.72259 21.1521L2.71844 7.58858C2.71877 5.68915 2.79144 3.23185 2.71261 1.36707L3.98842 1.30995C4.01018 0.887699 4.0357 0.49421 4.01822 0.0709273ZM6.58486 21.1172C13.6973 21.2442 20.9268 21.0567 28.0491 21.1324C30.6292 21.1598 33.3257 21.0758 35.8912 21.1536C35.8408 19.463 35.8797 17.5992 35.8801 15.8985L35.8724 3.98041C35.214 3.87937 33.5008 3.92018 32.7812 3.92056L27.0253 3.9227L6.61005 3.91137C6.59638 3.50227 6.60442 3.06914 6.60591 2.65758C7.34948 2.57195 9.06503 2.61684 9.8897 2.6169L16.1008 2.61736L35.8926 2.63245C35.865 3.06636 35.8783 3.48167 35.8864 3.9159C36.3179 3.91532 36.7564 3.92393 37.1886 3.9284C37.0925 5.32799 37.1937 7.4067 37.171 8.86147C37.1078 12.9053 37.258 17.0689 37.157 21.1062C37.5987 21.1237 38.0404 21.1381 38.4821 21.1493C38.4022 19.3696 38.4878 17.1013 38.475 15.2889C38.4423 10.6641 38.5288 6.01256 38.4549 1.38948C38.052 1.33125 37.6963 1.33501 37.2909 1.3297L4.03713 1.32102C3.90785 2.85475 4.03311 5.47178 4.00818 7.091C3.93699 11.716 4.10922 16.4947 3.99406 21.1065C4.43573 21.1241 4.87748 21.1387 5.31935 21.1505C5.24661 19.5537 5.31028 17.4119 5.31099 15.787L5.30788 3.95522C5.68654 3.92005 6.2189 3.92121 6.61005 3.91137C6.56432 5.36044 6.61847 6.87305 6.59904 8.32846C6.54256 12.5581 6.68331 16.8972 6.58486 21.1172Z" fill="#D2C2C7"/>
<path d="M8.08254 15.8433C8.50051 15.8435 8.91848 15.8477 9.33633 15.8558C9.32953 16.2004 9.35699 16.9965 9.25083 17.2701C8.8008 17.2609 8.50369 17.2476 8.05644 17.3107C8.04077 16.9559 8.01842 16.168 8.08254 15.8433Z" fill="#D2C2C7"/>
<path d="M10.6787 15.8463C11.0942 15.8378 11.5103 15.8499 11.9258 15.8583C11.9203 16.2054 11.9494 16.9961 11.841 17.2702C11.3789 17.2594 11.0995 17.2526 10.6403 17.3037C10.6367 16.9455 10.6068 16.1592 10.6787 15.8463Z" fill="#D2C2C7"/>
<path d="M13.4983 15.8567C13.8799 15.8349 14.2653 15.8506 14.6477 15.8594C14.634 16.1854 14.6481 17.0689 14.4995 17.282C14.0715 17.2564 13.7779 17.2631 13.3495 17.2809C13.346 16.9234 13.2534 16.0838 13.4983 15.8567Z" fill="#D2C2C7"/>
<path d="M13.3719 7.93155C13.7956 7.9445 14.2167 7.93654 14.6406 7.93174C14.6307 8.374 14.6006 8.82825 14.5763 9.27096C14.0724 9.22672 13.8477 9.21668 13.3448 9.25114C13.3457 8.80428 13.3442 8.37789 13.3719 7.93155Z" fill="#D2C2C7"/>
<path d="M15.9631 7.92979C16.3834 7.9443 16.8062 7.93691 17.2269 7.93374C17.2186 8.36317 17.1863 8.83776 17.1663 9.27069C16.6727 9.23027 16.4317 9.22036 15.939 9.25113C15.94 8.80323 15.9413 8.37723 15.9631 7.92979Z" fill="#D2C2C7"/>
<path d="M13.3747 5.33771C13.797 5.34567 14.2194 5.346 14.6417 5.33887C14.6249 5.77576 14.6117 6.21284 14.602 6.64998C14.1359 6.63003 13.8119 6.62517 13.347 6.65056C13.3449 6.21277 13.3542 5.77498 13.3747 5.33771Z" fill="#D2C2C7"/>
<path d="M15.9661 5.33659C16.3885 5.34987 16.8087 5.34288 17.2311 5.33892C17.2091 5.77542 17.196 6.21231 17.1919 6.64932C16.734 6.63112 16.4022 6.62626 15.9454 6.64997C15.9404 6.21211 15.9474 5.77413 15.9661 5.33659Z" fill="#D2C2C7"/>
<path d="M13.3724 18.5542C13.7938 18.5663 14.2173 18.5587 14.6391 18.5549C14.6184 18.9891 14.6037 19.4236 14.5951 19.8582C14.1363 19.8427 13.8008 19.8408 13.343 19.8661C13.343 19.4286 13.3528 18.9912 13.3724 18.5542Z" fill="#D2C2C7"/>
<path d="M8.08837 10.6658C8.50375 10.6632 8.91913 10.6676 9.33431 10.6789C9.33082 11.0863 9.3404 11.5413 9.28878 11.942L8.02722 11.9489C8.04419 11.5645 8.00539 11.0228 8.08837 10.6658Z" fill="#D2C2C7"/>
<path d="M8.08752 13.2567C8.50303 13.2529 8.91861 13.2573 9.33392 13.2696C9.33049 13.6769 9.34021 14.1322 9.28852 14.5328L8.02722 14.5395C8.04406 14.1545 8.00811 13.6158 8.08752 13.2567Z" fill="#D2C2C7"/>
<path d="M10.6852 10.6686C11.1003 10.6589 11.5072 10.6738 11.9221 10.6858C11.9196 11.0903 11.931 11.5448 11.8769 11.9421L10.6285 11.9444C10.6296 11.6113 10.6123 10.9662 10.6852 10.6686Z" fill="#D2C2C7"/>
<path d="M10.6862 13.261C11.1063 13.2483 11.5016 13.264 11.921 13.2782C11.9188 13.682 11.9304 14.1356 11.8768 14.5322L10.6284 14.5348C10.6305 14.2031 10.6157 13.5579 10.6862 13.261Z" fill="#D2C2C7"/>
<path d="M21.7803 5.36906C21.9067 5.34425 22.3854 5.34509 22.5393 5.34231C22.5416 5.79908 22.5246 6.19878 22.4993 6.65516C22.0328 6.64324 21.7285 6.62291 21.2671 6.70465C21.2584 6.37859 21.2014 5.54666 21.3475 5.29787L21.3579 5.34671C21.4164 5.63287 21.4114 5.97927 21.4159 6.27515L21.5421 6.32696L21.672 6.2256L22.0575 6.33674C22.1332 6.09379 22.1874 5.67841 22.1054 5.44121C21.972 5.42755 21.8725 5.4407 21.7803 5.36906Z" fill="#D2C2C7"/>
<path d="M8.25496 6.59485L8.14977 6.61921L8.06596 6.50495C8.02301 6.16717 7.90642 5.52982 8.22355 5.32773L8.37926 5.36516C8.57649 5.40921 8.64754 5.42709 8.85695 5.42968C9.00761 5.60696 8.90928 6.28589 8.76776 6.4622C8.55524 6.47192 8.42142 6.45832 8.25496 6.59485Z" fill="#D2C2C7"/>
<path d="M19.0015 5.36393L19.9512 5.33582C19.945 5.72445 19.9512 6.2855 19.916 6.65891C19.4831 6.6444 19.105 6.61415 18.6786 6.69842C18.6761 6.38441 18.662 5.99293 18.6817 5.68552C18.7097 5.86306 18.713 5.94539 18.7917 6.11036C19.4625 6.61953 19.8055 5.78527 19.461 5.42909C19.2661 5.42702 19.186 5.40532 19.0015 5.36393Z" fill="#D2C2C7"/>
<path d="M8.37958 7.95751L9.33037 7.93335C9.32279 8.35994 9.32317 8.8145 9.3062 9.23804C8.89775 9.22956 8.44571 9.19931 8.04912 9.27898C8.05093 8.94864 8.04219 8.53404 8.06194 8.2118C8.12341 8.62867 8.25101 9.06491 8.76918 8.82338C8.98714 8.56461 9.09524 8.29283 8.83991 8.02099C8.64592 8.01775 8.56373 7.99721 8.37958 7.95751Z" fill="#D2C2C7"/>
<path d="M10.9704 7.95765L11.921 7.93323C11.9136 8.34809 11.9171 8.82643 11.8958 9.23553C11.5825 9.23851 10.9828 9.29531 10.7477 9.16071C10.56 8.92093 10.6328 8.52608 10.6538 8.21201C10.7131 8.61482 10.7989 9.0565 11.3316 8.84573C11.5648 8.59396 11.6968 8.30392 11.4316 8.01976C11.2355 8.01814 11.1563 7.99787 10.9704 7.95765Z" fill="#D2C2C7"/>
<path d="M10.6823 18.5498L10.9053 18.5794C11.1411 18.6296 11.2498 18.6465 11.49 18.6625C11.5407 18.9337 11.5345 19.4403 11.4482 19.699C11.1149 19.8165 11.1434 19.4799 10.8609 19.7131C10.5801 19.5388 10.7486 18.9138 10.6823 18.5498Z" fill="#D2C2C7"/>
<path d="M8.09094 18.5459L8.31427 18.579C8.54965 18.6295 8.6573 18.6465 8.89715 18.6625C8.95318 18.9123 8.93615 19.4507 8.85104 19.6908C8.68114 19.7485 8.34362 19.655 8.14827 19.6163C8.07507 19.2252 8.14542 18.9035 8.09094 18.5459Z" fill="#D2C2C7"/>
<path d="M10.681 5.3269C10.7715 5.31614 10.8777 5.34516 10.9697 5.3631C11.1657 5.40456 11.2876 5.43033 11.4889 5.44795C11.5387 5.73275 11.5421 6.22845 11.427 6.49473C11.1517 6.51014 11.2556 6.48456 11.0098 6.38015C10.9522 6.35566 10.9633 6.5468 10.7828 6.4354C10.6656 5.99961 10.7415 5.71663 10.681 5.3269Z" fill="#D2C2C7"/>
<path d="M10.9698 5.3631C11.2624 5.3574 11.6357 5.33985 11.9218 5.34594L11.9005 6.64772C11.4964 6.64357 11.0274 6.62388 10.6307 6.67201C10.63 6.32924 10.6076 5.62796 10.6811 5.3269C10.7416 5.71663 10.6657 5.99961 10.7829 6.4354C10.9634 6.5468 10.9523 6.35566 11.0099 6.38015C11.2557 6.48456 11.1518 6.51014 11.4271 6.49473C11.5422 6.22845 11.5389 5.73275 11.489 5.44795C11.2877 5.43034 11.1658 5.40456 10.9698 5.3631Z" fill="#D2C2C7"/>
<path d="M8.31435 18.579L9.3301 18.5566L9.30937 19.8612C8.87119 19.8524 8.47621 19.8347 8.03991 19.8877C8.03784 19.5488 8.01057 18.8399 8.09102 18.5459C8.14549 18.9035 8.07515 19.2252 8.14834 19.6163C8.34369 19.655 8.68122 19.7485 8.85111 19.6908C8.93622 19.4507 8.95326 18.9123 8.89723 18.6625C8.65738 18.6465 8.54973 18.6295 8.31435 18.579Z" fill="#D2C2C7"/>
<path d="M10.9053 18.5794L11.9212 18.5569L11.8997 19.8583C11.5153 19.8541 10.9979 19.833 10.6306 19.8803C10.6291 19.5456 10.6036 18.8398 10.6822 18.5498C10.7486 18.9138 10.5801 19.5388 10.8609 19.7131C11.1434 19.4799 11.1149 19.8165 11.4482 19.699C11.5345 19.4403 11.5407 18.9337 11.49 18.6625C11.2498 18.6465 11.1411 18.6296 10.9053 18.5794Z" fill="#D2C2C7"/>
<path d="M8.06196 8.21181C8.04985 8.12061 8.06604 8.08175 8.08223 7.98964C8.23056 7.8963 8.16475 7.91761 8.3796 7.95751C8.56375 7.99722 8.64594 8.01775 8.83993 8.02099C9.09526 8.29284 8.98716 8.56462 8.7692 8.82338C8.25103 9.06491 8.12343 8.62868 8.06196 8.21181Z" fill="#D2C2C7"/>
<path d="M18.6817 5.68552C18.6426 5.51601 18.6809 5.4175 18.812 5.32675L19.0015 5.36393C19.186 5.40532 19.2661 5.42702 19.461 5.42909C19.8055 5.78527 19.4625 6.61953 18.7917 6.11036C18.713 5.94538 18.7097 5.86306 18.6817 5.68552Z" fill="#D2C2C7"/>
<path d="M10.6538 8.212L10.6631 8.01587L10.7802 7.9261L10.9704 7.95765C11.1562 7.99787 11.2355 8.01814 11.4316 8.01976C11.6968 8.30391 11.5648 8.59396 11.3316 8.84573C10.7988 9.0565 10.7131 8.61482 10.6538 8.212Z" fill="#D2C2C7"/>
<path d="M21.3474 5.29787L21.7802 5.36906C21.8725 5.4407 21.9719 5.42755 22.1054 5.44121C22.1874 5.67841 22.1331 6.09379 22.0574 6.33674L21.6719 6.2256L21.542 6.32696L21.4158 6.27515C21.4113 5.97927 21.4163 5.63287 21.3578 5.34671L21.3474 5.29787Z" fill="#D2C2C7"/>
<path d="M8.37918 5.36515L9.3299 5.33542L9.30911 6.64957C9.01252 6.63888 8.53554 6.6361 8.25488 6.59484C8.42135 6.4583 8.55516 6.4719 8.76768 6.46219C8.90921 6.28588 9.00753 5.60694 8.85687 5.42966C8.64746 5.42707 8.57641 5.40919 8.37918 5.36515Z" fill="#D2C2C7"/>
<path d="M2.89745 26.4948C3.55618 26.4156 5.11173 26.4511 5.82603 26.4513L11.2171 26.4552L30.4866 26.4551L36.5611 26.4567C37.3583 26.4571 38.9289 26.5036 39.6816 26.4368L39.7671 26.5826C39.7763 26.9615 39.7361 27.5282 39.7204 27.9199L13.4537 27.9103L5.90551 27.9136C4.8827 27.9134 3.70683 27.8677 2.71084 27.8952C2.70294 27.4472 2.70281 27.0515 2.71984 26.6038L2.89745 26.4948Z" fill="#D2C2C7"/>
<path d="M1.16565 25.2303L1.26151 25.1055C1.48659 25.1912 2.42241 25.1912 2.71978 25.1993C2.69996 25.604 2.58415 26.2133 2.89738 26.4948L2.71978 26.6038C2.31042 26.3876 1.75391 26.4426 1.2891 26.4503C1.30128 26.1133 1.4079 25.4484 1.16565 25.2303Z" fill="#D2C2C7"/>
<path d="M39.7779 25.2359C40.1944 25.1816 40.7453 25.1725 41.1756 25.1543L41.2403 25.1932C41.1687 25.7088 41.151 25.9115 41.1689 26.4301C40.8332 26.4332 39.9806 26.3832 39.7671 26.5826L39.6816 26.4368C39.7936 25.9923 39.7806 25.6882 39.7779 25.2359Z" fill="#D2C2C7"/>
</svg>
