<svg width="70" height="70" viewBox="0 0 70 70" fill="none" xmlns="http://www.w3.org/2000/svg">
  <!-- body/crowd base -->
  <g transform="translate(11.667, 43.75)">
    <path d="M43.75 8.75V5.83333H40.8333V2.91667H35V0H11.6667V2.91667H5.83333V5.83333H2.91667V8.75H0V17.5H2.91667V20.4167H43.75V17.5H46.6667V8.75H43.75ZM11.6667 8.75V5.83333H35V8.75H40.8333V14.5833H5.83333V8.75H11.6667Z" fill="#D2C2C7"/>
  </g>
  <!-- head center -->
  <g transform="translate(23.333, 14.583)">
    <path d="M20.4167 5.83333V2.91667H17.5V0H5.83333V2.91667H2.91667V5.83333H0V17.5H2.91667V20.4167H5.83333V23.3333H17.5V20.4167H20.4167V17.5H23.3333V5.83333H20.4167ZM5.83333 17.5V5.83333H17.5V17.5H5.83333Z" fill="#D2C2C7"/>
  </g>
  <!-- left hat -->
  <g transform="translate(11.667, 11.667)">
    <path d="M17 2.79167V13.9583H14.1667V16.75H2.83333V13.9583H0V2.79167H2.83333V0H14.1667V2.79167H17Z" fill="#D2C2C7"/>
  </g>
  <!-- right hat -->
  <g transform="translate(41.417, 11.667)">
    <path d="M17 2.79167V13.9583H14.1667V16.75H2.83333V13.9583H0V2.79167H2.83333V0H14.1667V2.79167H17Z" fill="#D2C2C7"/>
  </g>
  <!-- left shoulder -->
  <g transform="translate(2.917, 26.25)">
    <path d="M20.4167 2.91667V8.75H17.5V11.6667H0V8.75H2.91667V0H17.5V2.91667H20.4167Z" fill="#D2C2C7"/>
  </g>
  <!-- right shoulder -->
  <g transform="translate(46.667, 26.25)">
    <path d="M20.4167 2.91667V8.75H17.5V11.6667H0V8.75H2.91667V0H17.5V2.91667H20.4167Z" fill="#D2C2C7"/>
  </g>
</svg>
