<svg width="69" height="68" viewBox="0 0 69 68" fill="none" xmlns="http://www.w3.org/2000/svg">
  <!-- outer book -->
  <g transform="translate(5.75, 2.83333) scale(0.92)">
    <path d="M51.75 45.3333H54.625V42.5H57.5V2.83333H54.625V0H5.75V2.83333H2.875V5.66667H0V56.6667H2.875V59.5H5.75V62.3333H54.625V59.5H57.5V56.6667H54.625V53.8333H51.75V45.3333ZM46 56.6667H8.625V53.8333H5.75V48.1667H8.625V45.3333H46V56.6667ZM5.75 5.66667H51.75V39.6667H5.75V5.66667Z" fill="#D2C2C7"/>
  </g>
  <!-- heart -->
  <g transform="translate(18.5, 10)">
    <path d="M31.625 2.83333V11.3333H28.75V14.1667H25.875V17H23V19.8333H20.125V22.6667H17.25V25.5H14.375V22.6667H11.5V19.8333H8.625V17H5.75V14.1667H2.875V11.3333H0V2.83333H2.875V0H11.5V2.83333H14.375V5.66667H17.25V2.83333H20.125V0H28.75V2.83333H31.625Z" fill="#D2C2C7"/>
  </g>
</svg>
