<svg width="68" height="67" viewBox="0 0 68 67" fill="none" xmlns="http://www.w3.org/2000/svg">
  <!-- floppy outer -->
  <g transform="translate(2.833, 2.833)">
    <path d="M59.5 16.75V13.9583H56.6667V11.1667H53.8333V8.375H51V5.58333H48.1667V2.79167H45.3333V0H2.83333V2.79167H0V58.625H2.83333V61.4167H59.5V58.625H62.3333V16.75H59.5ZM39.6667 25.125V5.58333H42.5V8.375H45.3333V11.1667H48.1667V13.9583H51V16.75H53.8333V19.5417H56.6667V55.8333H5.66667V5.58333H8.5V25.125H39.6667ZM14.1667 5.58333H34V19.5417H14.1667V5.58333Z" fill="#D2C2C7"/>
  </g>
  <!-- label slot -->
  <g transform="translate(37.5, 2.833)">
    <path d="M28.75 2.83333V8.5H25.875V11.3333H23V14.1667H20.125V17H17.25V19.8333H14.375V22.6667H8.625V19.8333H5.75V17H2.875V14.1667H0V8.5H2.875V5.66667H8.625V8.5H14.375V5.66667H17.25V2.83333H20.125V0H25.875V2.83333H28.75Z" fill="#D2C2C7"/>
  </g>
</svg>
