<svg width="63" height="62" viewBox="0 0 63 62" fill="none" xmlns="http://www.w3.org/2000/svg">
  <!-- octagon outer -->
  <path d="M60.375 19.8333V17H57.5V14.1667H54.625V11.3333H51.75V8.5H48.875V5.66667H46V2.83333H43.125V0H20.125V2.83333H17.25V5.66667H14.375V8.5H11.5V11.3333H8.625V14.1667H5.75V17H2.875V19.8333H0V42.5H2.875V45.3333H5.75V48.1667H8.625V51H11.5V53.8333H14.375V56.6667H17.25V59.5H20.125V62.3333H43.125V59.5H46V56.6667H48.875V53.8333H51.75V51H54.625V48.1667H57.5V45.3333H60.375V42.5H63.25V19.8333H60.375ZM54.625 39.6667V42.5H51.75V45.3333H48.875V48.1667H46V51H43.125V53.8333H40.25V56.6667H23V53.8333H20.125V51H17.25V48.1667H14.375V45.3333H11.5V42.5H8.625V39.6667H5.75V22.6667H8.625V19.8333H11.5V17H14.375V14.1667H17.25V11.3333H20.125V8.5H23V5.66667H40.25V8.5H43.125V11.3333H46V14.1667H48.875V17H51.75V19.8333H54.625V22.6667H57.5V39.6667H54.625Z" fill="#D2C2C7"/>
  <!-- check mark -->
  <g transform="translate(20.875, 20.875)">
    <path d="M28.75 2.83333V8.5H25.875V11.3333H23V14.1667H20.125V17H17.25V19.8333H14.375V22.6667H8.625V19.8333H5.75V17H2.875V14.1667H0V8.5H2.875V5.66667H8.625V8.5H14.375V5.66667H17.25V2.83333H20.125V0H25.875V2.83333H28.75Z" fill="#D2C2C7"/>
  </g>
</svg>
