<svg width="53" height="63" viewBox="0 0 53 63" fill="none" xmlns="http://www.w3.org/2000/svg">
  <path d="M32.0833 25.5V14.1667H35V5.66667H37.9167V0H35V2.83333H32.0833V5.66667H29.1667V8.5H26.25V11.3333H23.3333V14.1667H20.4167V17H17.5V19.8333H14.5833V22.6667H11.6667V25.5H8.75V28.3333H5.83333V31.1667H2.91667V34H0V36.8333H20.4167V48.1667H17.5V56.6667H14.5833V62.3333H17.5V59.5H20.4167V56.6667H23.3333V53.8333H26.25V51H29.1667V48.1667H32.0833V45.3333H35V42.5H37.9167V39.6667H40.8333V36.8333H43.75V34H46.6667V31.1667H49.5833V28.3333H52.5V25.5H32.0833ZM43.75 31.1667H40.8333V34H37.9167V36.8333H35V39.6667H32.0833V42.5H29.1667V45.3333H26.25V48.1667H23.3333V34H8.75V31.1667H11.6667V28.3333H14.5833V25.5H17.5V22.6667H20.4167V19.8333H23.3333V17H26.25V14.1667H29.1667V28.3333H43.75V31.1667Z" fill="#D2C2C7"/>
</svg>
